<svg xmlns="http://www.w3.org/2000/svg" width="160" height="200" viewBox="0 0 160 200">
  <rect width="160" height="200" fill="#3b2317" />

  <!-- central retro arch -->
  <g transform="translate(80,100)">
    <path
      d="M-12 -80
         a48 48 0 0 1 96 0
         v80
         h-20
         v-80
         a28 28 0 0 0 -56 0
         v80
         h-20
         v-80
         a48 48 0 0 1 20 -40z"
      fill="#ff9b3a"
    />
    <path
      d="M-4 -60
         a36 36 0 0 1 72 0
         v80
         h-16
         v-80
         a20 20 0 0 0 -40 0
         v80
         h-16
         v-80
         a36 36 0 0 1 16 -28z"
      fill="#f16a30"
    />
    <path
      d="M4 -40
         a24 24 0 0 1 48 0
         v80
         h-12
         v-80
         a12 12 0 0 0 -24 0
         v80
         h-12
         v-80
         a24 24 0 0 1 12 -20z"
      fill="#cc3c24"
    />
  </g>

  <!-- offset copy to tile nicely -->
  <use href="#stripe" />
</svg>


